<svg xmlns="http://www.w3.org/2000/svg" viewBox="0 0 250 29.31"><defs><style>.cls-1{fill:#292929;}.cls-2{fill:#fff;}</style></defs><title>logo-douglas-oliveira_2</title><g id="Layer_2" data-name="Layer 2"><g id="Layer_1-2" data-name="Layer 1"><path class="cls-1" d="M19.54,0H9.77V9.77h9.77v9.77H9.77v9.77h9.77a9.76,9.76,0,0,0,9.77-9.77V9.77A9.76,9.76,0,0,0,19.54,0Z"/><path class="cls-1" d="M0,9.77a9.77,9.77,0,0,0,9.77,9.77V9.77Z"/><path class="cls-2" d="M59.61,10.16h-.14a5.63,5.63,0,0,0-1-1.08,6.56,6.56,0,0,0-1.33-.74A5,5,0,0,0,55.17,8a5.67,5.67,0,0,0-2.46.53,6.09,6.09,0,0,0-2,1.5,7.2,7.2,0,0,0-1.35,2.37,9.06,9.06,0,0,0-.5,3.13,9,9,0,0,0,.5,3.12A7.2,7.2,0,0,0,50.7,21a6.26,6.26,0,0,0,2,1.51,5.81,5.81,0,0,0,2.46.53,5,5,0,0,0,1.92-.34A6.11,6.11,0,0,0,58.42,22a5.36,5.36,0,0,0,1-1.08h.14v1.75h3.76V3.84H59.61Zm-1,8.56a3.17,3.17,0,0,1-2.51,1.12,3,3,0,0,1-2.39-1.12,4.71,4.71,0,0,1-1-3.18,4.72,4.72,0,0,1,1-3.19,3,3,0,0,1,2.39-1.12,3.2,3.2,0,0,1,2.51,1.12,4.67,4.67,0,0,1,1,3.19A4.66,4.66,0,0,1,58.62,18.72Z"/><path class="cls-2" d="M78.42,10.2A7.39,7.39,0,0,0,73.05,8a7.68,7.68,0,0,0-3,.58,7.35,7.35,0,0,0-2.39,1.61,7.1,7.1,0,0,0-1.57,2.39,7.89,7.89,0,0,0,0,5.89,7.24,7.24,0,0,0,1.57,2.4,7.33,7.33,0,0,0,2.39,1.6,7.68,7.68,0,0,0,3,.59,7.5,7.5,0,0,0,5.37-2.19,7.62,7.62,0,0,0,2.16-5.34A7.5,7.5,0,0,0,80,12.59,7.27,7.27,0,0,0,78.42,10.2Zm-2,7.1a4.06,4.06,0,0,1-.78,1.35,3.65,3.65,0,0,1-1.16.87,3.27,3.27,0,0,1-2.82,0,3.65,3.65,0,0,1-1.16-.87,4.06,4.06,0,0,1-.78-1.35,5.41,5.41,0,0,1-.28-1.76,5.48,5.48,0,0,1,.28-1.77,4.27,4.27,0,0,1,.78-1.35,3.65,3.65,0,0,1,1.16-.87,3.27,3.27,0,0,1,2.82,0,3.65,3.65,0,0,1,1.16.87,4.27,4.27,0,0,1,.78,1.35,5.22,5.22,0,0,1,.28,1.77A5.16,5.16,0,0,1,76.4,17.3Z"/><path class="cls-2" d="M92.55,16a4.54,4.54,0,0,1-.26,1.55,3.55,3.55,0,0,1-.7,1.2,3.27,3.27,0,0,1-1,.78,2.84,2.84,0,0,1-1.24.28A2.65,2.65,0,0,1,87.25,19a3.47,3.47,0,0,1-.75-2.43V8.41H82.73v8.65a6.31,6.31,0,0,0,1.43,4.48,5.14,5.14,0,0,0,4,1.53,4.94,4.94,0,0,0,2-.35,6.49,6.49,0,0,0,1.35-.78,3.92,3.92,0,0,0,1-1.16h.14v1.88h3.76V8.41H92.55Z"/><path class="cls-2" d="M109.36,10.19h-.14a5.36,5.36,0,0,0-1-1.08,6.56,6.56,0,0,0-1.33-.75A4.64,4.64,0,0,0,104.92,8a5.81,5.81,0,0,0-2.46.52,6.09,6.09,0,0,0-2,1.5,7.17,7.17,0,0,0-1.35,2.3,8.43,8.43,0,0,0-.5,3,8.45,8.45,0,0,0,.5,3,7.17,7.17,0,0,0,1.35,2.3,6.09,6.09,0,0,0,2,1.5,5.81,5.81,0,0,0,2.46.52,5,5,0,0,0,1.92-.33,6.56,6.56,0,0,0,1.33-.74,5.25,5.25,0,0,0,1-1.11h.14v3.93h-8.74v3.36h12.5V8.41h-3.76Zm-1,8.16a3.12,3.12,0,0,1-2.4,1.09,3.24,3.24,0,0,1-2.51-1.09,4.32,4.32,0,0,1-1-3,4.31,4.31,0,0,1,1-3A3.24,3.24,0,0,1,106,11.23a3.12,3.12,0,0,1,2.4,1.09,4.41,4.41,0,0,1,1,3A4.42,4.42,0,0,1,108.39,18.35Z"/><polygon class="cls-2" points="119.84 3.84 116.08 3.84 116.08 22.66 122.94 22.66 122.94 19.44 119.84 19.44 119.84 3.84"/><path class="cls-2" d="M134.77,10.16h-.14a5.1,5.1,0,0,0-1-1.08,6.3,6.3,0,0,0-1.33-.74A5,5,0,0,0,130.33,8a5.67,5.67,0,0,0-2.46.53,6,6,0,0,0-2,1.5,7,7,0,0,0-1.36,2.37,9.3,9.3,0,0,0-.5,3.13,9.28,9.28,0,0,0,.5,3.12A7,7,0,0,0,125.87,21a6.12,6.12,0,0,0,2,1.51,5.81,5.81,0,0,0,2.46.53,5,5,0,0,0,1.92-.34,5.88,5.88,0,0,0,1.33-.74,4.87,4.87,0,0,0,1-1.08h.14v1.75h3.76V8.41h-3.76Zm-1,8.56a3.2,3.2,0,0,1-2.52,1.12,3,3,0,0,1-2.39-1.12,4.71,4.71,0,0,1-1-3.18,4.72,4.72,0,0,1,1-3.19,3,3,0,0,1,2.39-1.12,3.24,3.24,0,0,1,2.52,1.12,4.72,4.72,0,0,1,1,3.19A4.71,4.71,0,0,1,133.79,18.72Z"/><path class="cls-2" d="M151.39,14.82a7.79,7.79,0,0,0-2-.76l-2-.48a8.91,8.91,0,0,1-1.58-.51.91.91,0,0,1-.63-.84,1,1,0,0,1,.43-.78A2.35,2.35,0,0,1,147,11.1a3.37,3.37,0,0,1,1.39.24,3.22,3.22,0,0,1,.82.51,2.27,2.27,0,0,1,.48.76h3.77a5.52,5.52,0,0,0-1.05-2.29,5.24,5.24,0,0,0-.81-.83,5.8,5.8,0,0,0-1.14-.76,6.77,6.77,0,0,0-1.52-.53A8.8,8.8,0,0,0,147,8a7.89,7.89,0,0,0-2.5.36,5.93,5.93,0,0,0-1.8,1,4.19,4.19,0,0,0-1.1,1.4,3.74,3.74,0,0,0-.38,1.63,3.66,3.66,0,0,0,.63,2.25A4.81,4.81,0,0,0,143.43,16a8.42,8.42,0,0,0,2,.76l2,.47a8.78,8.78,0,0,1,1.57.51.91.91,0,0,1,.63.85,1.23,1.23,0,0,1-.48,1,3,3,0,0,1-1.8.38,3.14,3.14,0,0,1-1.48-.29A3.22,3.22,0,0,1,145,19a3,3,0,0,1-.59-1h-3.9a6.8,6.8,0,0,0,1.21,2.51,5.69,5.69,0,0,0,.87.92,8,8,0,0,0,1.21.81,6.82,6.82,0,0,0,1.58.57,8.62,8.62,0,0,0,2,.21,8.31,8.31,0,0,0,2.66-.4,6.06,6.06,0,0,0,1.94-1,4.37,4.37,0,0,0,1.18-1.48,3.88,3.88,0,0,0,.4-1.73,3.66,3.66,0,0,0-.63-2.25A4.63,4.63,0,0,0,151.39,14.82Z"/><path class="cls-2" d="M167.83,10.2a7.31,7.31,0,0,0-2.38-1.61,7.51,7.51,0,0,0-3-.58,7.6,7.6,0,0,0-3,.58,7.25,7.25,0,0,0-2.39,1.61,7.12,7.12,0,0,0-1.58,2.39,8,8,0,0,0,0,5.89,7.26,7.26,0,0,0,4,4,7.61,7.61,0,0,0,3,.59,7.51,7.51,0,0,0,3-.59,7.28,7.28,0,0,0,2.38-1.6,7.7,7.7,0,0,0,1.59-8.29A7.46,7.46,0,0,0,167.83,10.2Zm-2,7.1a3.88,3.88,0,0,1-.77,1.35,3.76,3.76,0,0,1-1.16.87,3.24,3.24,0,0,1-1.41.32,3.17,3.17,0,0,1-1.41-.32,3.65,3.65,0,0,1-1.16-.87,4.06,4.06,0,0,1-.78-1.35,5.16,5.16,0,0,1-.28-1.76,5.22,5.22,0,0,1,.28-1.77,4.27,4.27,0,0,1,.78-1.35,3.65,3.65,0,0,1,1.16-.87,3.17,3.17,0,0,1,1.41-.32,3.24,3.24,0,0,1,1.41.32,3.76,3.76,0,0,1,1.16.87,4.07,4.07,0,0,1,.77,1.35,5.21,5.21,0,0,1,.29,1.77A5.16,5.16,0,0,1,165.81,17.3Z"/><polygon class="cls-2" points="175.91 3.84 172.15 3.84 172.15 22.66 179 22.66 179 19.44 175.91 19.44 175.91 3.84"/><rect class="cls-2" x="180.75" y="8.41" width="3.77" height="14.25"/><polygon class="cls-2" points="194.2 19.44 192.72 19.44 190.16 8.41 186.27 8.41 189.9 22.66 197.02 22.66 200.65 8.41 196.75 8.41 194.2 19.44"/><path class="cls-2" d="M214.23,10.19a6.8,6.8,0,0,0-2.3-1.6A7.18,7.18,0,0,0,209,8a7.3,7.3,0,0,0-6.83,4.58,7.89,7.89,0,0,0,0,5.89,7.54,7.54,0,0,0,1.56,2.4A7.36,7.36,0,0,0,209,23.07a8.81,8.81,0,0,0,2-.22,6.41,6.41,0,0,0,1.6-.59,6.7,6.7,0,0,0,1.24-.83,7,7,0,0,0,.94-.95,7.58,7.58,0,0,0,1.35-2.58h-4a3.21,3.21,0,0,1-.64,1,4,4,0,0,1-1,.66,3.08,3.08,0,0,1-1.49.31,2.84,2.84,0,0,1-1.24-.28,3.79,3.79,0,0,1-1.06-.77,4.6,4.6,0,0,1-.78-1.14,5,5,0,0,1-.42-1.36h10.76v-.83a7.94,7.94,0,0,0-.52-2.9A7.13,7.13,0,0,0,214.23,10.19ZM205.63,14a4,4,0,0,1,1.17-1.85,3.13,3.13,0,0,1,2.19-.8,3.17,3.17,0,0,1,1.2.23,3.42,3.42,0,0,1,1,.58,3.1,3.1,0,0,1,.69.84,3.68,3.68,0,0,1,.38,1Z"/><rect class="cls-2" x="218.54" y="8.41" width="3.77" height="14.25"/><path class="cls-2" d="M231,8.44a5.29,5.29,0,0,0-1.08.86,3.12,3.12,0,0,0-.72,1.13H229v-2h-3.76V22.66H229V14.93a3.35,3.35,0,0,1,.85-2.4,3.12,3.12,0,0,1,2.38-.89h2V8h-1.62A3.05,3.05,0,0,0,231,8.44Z"/><path class="cls-2" d="M246.23,8.41v1.75h-.13a5.63,5.63,0,0,0-1-1.08,6.56,6.56,0,0,0-1.33-.74A5,5,0,0,0,241.8,8a5.67,5.67,0,0,0-2.46.53,6,6,0,0,0-2,1.5A7.2,7.2,0,0,0,236,12.41a9.06,9.06,0,0,0-.5,3.13,9,9,0,0,0,.5,3.12A7.2,7.2,0,0,0,237.33,21a6.15,6.15,0,0,0,2,1.51,5.81,5.81,0,0,0,2.46.53,5,5,0,0,0,1.92-.34,6.11,6.11,0,0,0,1.33-.74,5.36,5.36,0,0,0,1-1.08h.13v1.75H250V8.41Zm-1,10.31a3.17,3.17,0,0,1-2.51,1.12,3,3,0,0,1-2.39-1.12,4.71,4.71,0,0,1-1-3.18,4.72,4.72,0,0,1,1-3.19,3,3,0,0,1,2.39-1.12,3.2,3.2,0,0,1,2.51,1.12,4.67,4.67,0,0,1,1,3.19A4.66,4.66,0,0,1,245.25,18.72Z"/><path class="cls-2" d="M182.51,2.83a2.1,2.1,0,0,0-1.52.6,1.91,1.91,0,0,0-.62,1.41A1.88,1.88,0,0,0,181,6.25a2.24,2.24,0,0,0,3,0,1.91,1.91,0,0,0,.62-1.41A2,2,0,0,0,184,3.43,2.1,2.1,0,0,0,182.51,2.83Z"/><path class="cls-2" d="M220.19,2.83a2.1,2.1,0,0,0-1.53.6,1.93,1.93,0,0,0-.61,1.41,1.9,1.9,0,0,0,.61,1.41,2.25,2.25,0,0,0,3.06,0,1.91,1.91,0,0,0,.62-1.41,2,2,0,0,0-.62-1.41A2.1,2.1,0,0,0,220.19,2.83Z"/></g></g></svg>