<svg xmlns="http://www.w3.org/2000/svg" xmlns:xlink="http://www.w3.org/1999/xlink" viewBox="0 0 310.48 47.96"><defs><style>.cls-1{font-size:44.08px;fill:#fff;font-family:Barlow-ExtraBold, Barlow;font-weight:700;}.cls-2{letter-spacing:-0.01em;}.cls-3{fill:url(#linear-gradient);}</style><linearGradient id="linear-gradient" y1="23.98" x2="68.72" y2="23.98" gradientUnits="userSpaceOnUse"><stop offset="0" stop-color="#ff004e"/><stop offset="1" stop-color="#004eff"/></linearGradient></defs><title>logo-ambigram</title><g id="Layer_2" data-name="Layer 2"><g id="Layer_1-2" data-name="Layer 1"><text class="cls-1" transform="translate(111.09 37.47)">ambig<tspan class="cls-2" x="121.89" y="0">r</tspan><tspan x="138.78" y="0">am</tspan></text><path class="cls-3" d="M63.52,11.66l-.36-.34-.29-.25-.18-.16-.18-.15-.17-.14-.11-.09L62,10.34c-.23-.18-.46-.35-.7-.51l-.17-.12a1.64,1.64,0,0,1-.22-.14l-.17-.11-.24-.15c-.3-.18-.6-.36-.92-.52l-.2-.1-.19-.1L59,8.48l-.33-.16-.46-.19-.47-.19-.46-.17h0l-.47-.16v5.6A12,12,0,0,1,63.52,24V36H46.68q.36-.37.69-.75a17.19,17.19,0,0,0,0-22.45q-.33-.39-.69-.75A17.33,17.33,0,0,0,43,9.1a17.1,17.1,0,0,0-8.59-2.3H0V24A17.13,17.13,0,0,0,4.86,36l.35.34A17.09,17.09,0,0,0,12,40.36v-5.6A12,12,0,0,1,5.21,24V12H22q-.34.36-.69.75a17.19,17.19,0,0,0,0,22.45L22,36a17.22,17.22,0,0,0,3.73,2.9,17,17,0,0,0,8.59,2.3H68.72V24A17.13,17.13,0,0,0,63.52,11.66ZM22.39,24a12,12,0,0,1,7.8-11.22A12,12,0,0,1,43,32.32a12,12,0,0,1-12.76,2.89,12.16,12.16,0,0,1-4.42-2.89A12,12,0,0,1,22.39,24Z"/></g></g></svg>