<svg xmlns="http://www.w3.org/2000/svg" xmlns:xlink="http://www.w3.org/1999/xlink" viewBox="0 0 308.8 41.17"><defs><style>.cls-1{fill:#fff;}.cls-2{fill:url(#linear-gradient);}</style><linearGradient id="linear-gradient" y1="19" x2="68.72" y2="19" gradientUnits="userSpaceOnUse"><stop offset="0" stop-color="#ff004e"/><stop offset="1" stop-color="#004eff"/></linearGradient></defs><title>logo-ambigram-negativa</title><g id="Layer_2" data-name="Layer 2"><g id="Layer_1-2" data-name="Layer 1"><path class="cls-1" d="M127.79,10.34a9.05,9.05,0,0,1,3.75,2.73,6.12,6.12,0,0,1,1.37,3.86V32a.51.51,0,0,1-.16.38.5.5,0,0,1-.37.15h-6.26a.51.51,0,0,1-.53-.53V30.42c0-.12,0-.19-.09-.2s-.12,0-.17.15q-1.68,2.48-5.74,2.47A8.84,8.84,0,0,1,114,31.19a5.85,5.85,0,0,1-2.09-4.87,6.31,6.31,0,0,1,2.36-5.25c1.57-1.23,3.86-1.85,6.85-1.85h4.28a.19.19,0,0,0,.22-.22v-.84a2.34,2.34,0,0,0-.79-1.87,3.27,3.27,0,0,0-2.21-.68,4,4,0,0,0-1.83.39,2,2,0,0,0-1,1c-.15.32-.35.47-.62.44l-6.34-.84c-.36-.06-.53-.19-.53-.4a6,6,0,0,1,1.52-3.5,9.06,9.06,0,0,1,3.61-2.47,14.73,14.73,0,0,1,10.38.09Zm-3.28,16.4a2.77,2.77,0,0,0,1.08-2.27V23.41a.19.19,0,0,0-.22-.22h-2.65a4.82,4.82,0,0,0-2.57.57,1.89,1.89,0,0,0-.91,1.72A1.93,1.93,0,0,0,119.9,27a2.7,2.7,0,0,0,1.85.58A4.31,4.31,0,0,0,124.51,26.74Z"/><path class="cls-1" d="M168.09,11.46A8.51,8.51,0,0,1,170,17.41V32a.55.55,0,0,1-.16.38.51.51,0,0,1-.37.15h-6.22a.5.5,0,0,1-.37-.15.51.51,0,0,1-.16-.38V19a3.8,3.8,0,0,0-.77-2.45,2.51,2.51,0,0,0-2-.94,2.64,2.64,0,0,0-2.09.92A3.58,3.58,0,0,0,157,19V32a.51.51,0,0,1-.53.53h-6.26a.5.5,0,0,1-.37-.15.51.51,0,0,1-.16-.38V19a3.66,3.66,0,0,0-.81-2.45,2.65,2.65,0,0,0-2.1-.94,2.77,2.77,0,0,0-2,.75,3.28,3.28,0,0,0-1,2V32a.51.51,0,0,1-.53.53h-6.26a.5.5,0,0,1-.37-.15.51.51,0,0,1-.16-.38V10.23a.51.51,0,0,1,.16-.38.5.5,0,0,1,.37-.15h6.26a.51.51,0,0,1,.53.53v2c0,.12,0,.19.09.2s.12,0,.17-.15a6.05,6.05,0,0,1,5.65-2.91,7.58,7.58,0,0,1,3.88,1,6.2,6.2,0,0,1,2.55,2.82c.09.17.18.16.27-.05A6.41,6.41,0,0,1,159,10.27a7.34,7.34,0,0,1,3.73-.92A7,7,0,0,1,168.09,11.46Z"/><path class="cls-1" d="M195.64,21a18,18,0,0,1-.71,5.12A9.7,9.7,0,0,1,191.65,31a8.4,8.4,0,0,1-5.31,1.8,5.89,5.89,0,0,1-5.12-2.47c-.06-.08-.11-.11-.17-.08a.17.17,0,0,0-.09.17V32a.51.51,0,0,1-.53.53h-6.26a.5.5,0,0,1-.37-.15.51.51,0,0,1-.16-.38V2.16a.47.47,0,0,1,.16-.37.47.47,0,0,1,.37-.16h6.26a.51.51,0,0,1,.38.16.5.5,0,0,1,.15.37v9.21c0,.09,0,.14.09.16a.18.18,0,0,0,.17-.07,5.75,5.75,0,0,1,4.85-2.11,8.68,8.68,0,0,1,5.4,1.67,9.48,9.48,0,0,1,3.24,4.41A15.68,15.68,0,0,1,195.64,21Zm-7.63.14a7.68,7.68,0,0,0-.88-3.93,3,3,0,0,0-5.29,0,7.79,7.79,0,0,0-.84,4,8,8,0,0,0,.75,3.74,2.92,2.92,0,0,0,2.69,1.72,3,3,0,0,0,2.78-1.67A7.9,7.9,0,0,0,188,21.12Z"/><path class="cls-1" d="M199.85,6.59a3.73,3.73,0,0,1-1.08-2.75,3.71,3.71,0,0,1,1.08-2.78,4.11,4.11,0,0,1,5.51,0,3.71,3.71,0,0,1,1.08,2.78,3.76,3.76,0,0,1-1.08,2.73,4,4,0,0,1-5.51,0Zm-.79,25.75a.51.51,0,0,1-.16-.38V10.23a.51.51,0,0,1,.16-.38.5.5,0,0,1,.37-.15h6.26a.51.51,0,0,1,.53.53V32a.51.51,0,0,1-.53.53h-6.26A.5.5,0,0,1,199.06,32.34Z"/><path class="cls-1" d="M224,9.85a.5.5,0,0,1,.37-.15h6.26a.51.51,0,0,1,.53.53v19.7q0,6-3.48,8.64a14.29,14.29,0,0,1-8.82,2.6,26,26,0,0,1-4.19-.35c-.29,0-.44-.22-.44-.57l.22-5.47a.47.47,0,0,1,.18-.42.51.51,0,0,1,.44,0,15.39,15.39,0,0,0,3.35.4,6.21,6.21,0,0,0,4-1.15A4.31,4.31,0,0,0,223.85,30l-.31.31A6.21,6.21,0,0,1,219,31.87a11.14,11.14,0,0,1-5.33-1.28,7.4,7.4,0,0,1-3.49-4.49,16.64,16.64,0,0,1-.7-5.2,15.53,15.53,0,0,1,.84-5.56A9.15,9.15,0,0,1,213.52,11a8.5,8.5,0,0,1,5.18-1.63,6.18,6.18,0,0,1,4.89,1.94.19.19,0,0,0,.18.06s.08-.06.08-.15v-1A.51.51,0,0,1,224,9.85Zm-.16,11a17.79,17.79,0,0,0-.08-1.87,4.73,4.73,0,0,0-.36-1.3,3.06,3.06,0,0,0-1.12-1.52,3.14,3.14,0,0,0-1.88-.55,3,3,0,0,0-2.95,2.07,6.91,6.91,0,0,0-.66,3.26,6.7,6.7,0,0,0,.57,3.17,3.53,3.53,0,0,0,1.19,1.5,3.11,3.11,0,0,0,1.9.58,2.92,2.92,0,0,0,3-2A10.08,10.08,0,0,0,223.85,20.85Z"/><path class="cls-1" d="M249.42,10a.57.57,0,0,1,.27.66l-1,6.13c0,.35-.23.46-.61.31a6.8,6.8,0,0,0-1.5-.18,5.53,5.53,0,0,0-1.15.09A4.06,4.06,0,0,0,243.1,18a3,3,0,0,0-.95,2.34V32a.51.51,0,0,1-.16.38.5.5,0,0,1-.37.15h-6.26a.51.51,0,0,1-.53-.53V10.23a.51.51,0,0,1,.53-.53h6.26a.5.5,0,0,1,.37.15.51.51,0,0,1,.16.38v1.41c0,.09,0,.15.09.17s.1,0,.13-.08A5.47,5.47,0,0,1,247,9.39,4.54,4.54,0,0,1,249.42,10Z"/><path class="cls-1" d="M266.57,10.34a9.05,9.05,0,0,1,3.75,2.73,6.12,6.12,0,0,1,1.37,3.86V32a.55.55,0,0,1-.16.38.51.51,0,0,1-.37.15H264.9a.52.52,0,0,1-.38-.15.54.54,0,0,1-.15-.38V30.42c0-.12,0-.19-.09-.2s-.12,0-.18.15q-1.67,2.48-5.73,2.47a8.84,8.84,0,0,1-5.62-1.65,5.82,5.82,0,0,1-2.09-4.87A6.28,6.28,0,0,1,253,21.07q2.35-1.84,6.85-1.85h4.28a.2.2,0,0,0,.22-.22v-.84a2.35,2.35,0,0,0-.8-1.87,3.24,3.24,0,0,0-2.2-.68,4,4,0,0,0-1.83.39,1.91,1.91,0,0,0-1,1c-.15.32-.35.47-.62.44l-6.35-.84c-.35-.06-.53-.19-.53-.4a6.17,6.17,0,0,1,1.52-3.5,9.17,9.17,0,0,1,3.62-2.47,13.59,13.59,0,0,1,5.05-.9A13.76,13.76,0,0,1,266.57,10.34Zm-3.28,16.4a2.77,2.77,0,0,0,1.08-2.27V23.41a.2.2,0,0,0-.22-.22H261.5a4.84,4.84,0,0,0-2.58.57,1.91,1.91,0,0,0-.9,1.72,1.93,1.93,0,0,0,.66,1.54,2.7,2.7,0,0,0,1.85.58A4.31,4.31,0,0,0,263.29,26.74Z"/><path class="cls-1" d="M306.86,11.46a8.46,8.46,0,0,1,1.94,5.95V32a.54.54,0,0,1-.15.38.52.52,0,0,1-.38.15h-6.21a.51.51,0,0,1-.53-.53V19a3.8,3.8,0,0,0-.77-2.45,2.52,2.52,0,0,0-2.05-.94,2.67,2.67,0,0,0-2.1.92A3.62,3.62,0,0,0,295.8,19V32a.51.51,0,0,1-.16.38.5.5,0,0,1-.37.15H289a.51.51,0,0,1-.53-.53V19a3.66,3.66,0,0,0-.81-2.45,2.66,2.66,0,0,0-2.1-.94,2.77,2.77,0,0,0-2,.75,3.22,3.22,0,0,0-1,2V32a.51.51,0,0,1-.16.38.51.51,0,0,1-.37.15h-6.26a.51.51,0,0,1-.53-.53V10.23a.51.51,0,0,1,.53-.53h6.26a.51.51,0,0,1,.37.15.51.51,0,0,1,.16.38v2c0,.12,0,.19.09.2s.11,0,.17-.15a6,6,0,0,1,5.64-2.91,7.55,7.55,0,0,1,3.88,1A6.22,6.22,0,0,1,295,13.14c.09.17.18.16.27-.05a6.35,6.35,0,0,1,2.53-2.82,7.29,7.29,0,0,1,3.73-.92A6.91,6.91,0,0,1,306.86,11.46Z"/><path class="cls-2" d="M63.52,6.68l-.36-.34-.29-.26-.18-.15-.18-.15-.17-.14-.11-.09L62,5.36c-.23-.18-.46-.35-.7-.51l-.17-.12-.22-.14-.17-.11-.24-.15c-.3-.18-.6-.36-.92-.52l-.2-.11-.19-.09L59,3.5l-.33-.16-.46-.2L57.7,3l-.46-.18h0l-.47-.16v5.6A12,12,0,0,1,63.52,19V31H46.68q.36-.37.69-.75a17.19,17.19,0,0,0,0-22.45Q47,7.39,46.68,7A16.73,16.73,0,0,0,43,4.12a17.1,17.1,0,0,0-8.59-2.3H0V19A17.13,17.13,0,0,0,4.86,31l.35.34A17.09,17.09,0,0,0,12,35.38v-5.6A12,12,0,0,1,5.21,19V7H22q-.34.36-.69.75a17.19,17.19,0,0,0,0,22.45L22,31a17.22,17.22,0,0,0,3.73,2.9,17,17,0,0,0,8.59,2.3H68.72V19A17.13,17.13,0,0,0,63.52,6.68ZM22.39,19a12,12,0,0,1,7.8-11.22A12,12,0,0,1,43,27.33,12,12,0,0,1,22.39,19Z"/></g></g></svg>