<svg xmlns="http://www.w3.org/2000/svg" xmlns:xlink="http://www.w3.org/1999/xlink" viewBox="0 0 200 35.53"><defs><style>.cls-1{fill:url(#linear-gradient);}.cls-2{fill:url(#linear-gradient-2);}.cls-3{fill:url(#linear-gradient-3);}.cls-4{fill:url(#linear-gradient-4);}.cls-5{fill:url(#linear-gradient-7);}.cls-6{fill:url(#linear-gradient-8);}.cls-7{fill:url(#linear-gradient-9);}.cls-8{fill:url(#linear-gradient-10);}.cls-9{fill:url(#linear-gradient-11);}.cls-10{fill:url(#linear-gradient-12);}</style><linearGradient id="linear-gradient" x1="-6.54" y1="17.85" x2="202.61" y2="17.85" gradientUnits="userSpaceOnUse"><stop offset="0" stop-color="#3fa9f5"/><stop offset="0.1" stop-color="#45a4ee"/><stop offset="0.25" stop-color="#5797da"/><stop offset="0.42" stop-color="#7582ba"/><stop offset="0.62" stop-color="#9e648e"/><stop offset="0.84" stop-color="#d23e56"/><stop offset="1" stop-color="#ff1d25"/></linearGradient><linearGradient id="linear-gradient-2" x1="-6.54" y1="17.67" x2="202.61" y2="17.67" xlink:href="#linear-gradient"/><linearGradient id="linear-gradient-3" x1="-6.54" y1="17.64" x2="202.61" y2="17.64" xlink:href="#linear-gradient"/><linearGradient id="linear-gradient-4" x1="-6.54" y1="17.69" x2="202.61" y2="17.69" xlink:href="#linear-gradient"/><linearGradient id="linear-gradient-7" x1="-6.54" y1="2.1" x2="202.61" y2="2.1" xlink:href="#linear-gradient"/><linearGradient id="linear-gradient-8" x1="-6.54" y1="8.43" x2="47.59" y2="8.43" xlink:href="#linear-gradient"/><linearGradient id="linear-gradient-9" x1="-6.54" y1="14.93" x2="202.61" y2="14.93" xlink:href="#linear-gradient"/><linearGradient id="linear-gradient-10" x1="-6.54" y1="7.27" x2="202.61" y2="7.27" xlink:href="#linear-gradient"/><linearGradient id="linear-gradient-11" x1="-6.54" y1="20.72" x2="202.61" y2="20.72" xlink:href="#linear-gradient"/><linearGradient id="linear-gradient-12" x1="-6.54" y1="28.39" x2="202.61" y2="28.39" xlink:href="#linear-gradient"/></defs><title>logo-ambigram-positiva</title><g id="Layer_2" data-name="Layer 2"><g id="Layer_1-2" data-name="Layer 1"><path class="cls-1" d="M20,9.7a9.22,9.22,0,0,0-3.81-2.78,13.91,13.91,0,0,0-5.41-1,13.78,13.78,0,0,0-5.13.91A9.25,9.25,0,0,0,2,9.34,6.22,6.22,0,0,0,.4,12.9c0,.21.18.35.54.4l6.45.85c.26,0,.47-.11.63-.44a1.88,1.88,0,0,1,1-1,4,4,0,0,1,1.86-.41,3.29,3.29,0,0,1,2.24.7,2.35,2.35,0,0,1,.8,1.9v.85c0,.15-.07.23-.22.23H9.36c-3,0-5.37.62-7,1.88A6.37,6.37,0,0,0,0,23.15a5.92,5.92,0,0,0,2.13,5,9,9,0,0,0,5.71,1.68,9.67,9.67,0,0,0,2.63-.32v-5H10a2.78,2.78,0,0,1-1.88-.58,2,2,0,0,1-.67-1.57,1.9,1.9,0,0,1,.92-1.74A4.87,4.87,0,0,1,11,20H13.7a.19.19,0,0,1,.22.22v8.69a.57.57,0,0,0,.16.38.55.55,0,0,0,.38.15h6.36a.54.54,0,0,0,.38-.15.57.57,0,0,0,.16-.38V13.61A6.18,6.18,0,0,0,20,9.7Z"/><path class="cls-2" d="M57.09,8.06a8.66,8.66,0,0,1,2,6V28.88a.57.57,0,0,1-.16.39.54.54,0,0,1-.38.15H52.21a.52.52,0,0,1-.38-.15.53.53,0,0,1-.16-.39V15.72a3.76,3.76,0,0,0-.79-2.48,2.52,2.52,0,0,0-2.08-1,2.72,2.72,0,0,0-2.12.94,3.64,3.64,0,0,0-.83,2.51V28.88a.53.53,0,0,1-.16.39.52.52,0,0,1-.38.15H39a.54.54,0,0,1-.38-.15.56.56,0,0,1-.15-.39V15.72a3.68,3.68,0,0,0-.83-2.48,2.67,2.67,0,0,0-2.13-1,2.82,2.82,0,0,0-2,.76,3.32,3.32,0,0,0-1,2V28.88a.53.53,0,0,1-.16.39.52.52,0,0,1-.38.15H25.57a.52.52,0,0,1-.38-.15.53.53,0,0,1-.16-.39V6.81a.51.51,0,0,1,.16-.38.53.53,0,0,1,.38-.16h6.35a.53.53,0,0,1,.38.16.51.51,0,0,1,.16.38v2c0,.12,0,.18.09.2s.12,0,.18-.16a6.12,6.12,0,0,1,5.73-2.95,7.68,7.68,0,0,1,3.94,1A6.43,6.43,0,0,1,45,9.77c.09.18.18.16.27,0a6.37,6.37,0,0,1,2.57-2.86,7.41,7.41,0,0,1,3.78-.94A7.07,7.07,0,0,1,57.09,8.06Z"/><path class="cls-3" d="M88.18,29.05a.49.49,0,0,1-.16-.38V6.6a.49.49,0,0,1,.16-.38.53.53,0,0,1,.38-.16h6.35a.57.57,0,0,1,.39.16.52.52,0,0,1,.15.38V28.67a.52.52,0,0,1-.15.38.53.53,0,0,1-.39.16H88.56A.49.49,0,0,1,88.18,29.05Z"/><path class="cls-4" d="M139.69,6.54a.59.59,0,0,1,.27.67l-1,6.23c0,.36-.24.46-.63.31a6.91,6.91,0,0,0-1.52-.18,5.57,5.57,0,0,0-1.16.09,4.1,4.1,0,0,0-2.35,1.08,3,3,0,0,0-1,2.37V28.88a.56.56,0,0,1-.15.39.55.55,0,0,1-.38.15h-6.36a.52.52,0,0,1-.38-.15.53.53,0,0,1-.16-.39V6.81a.51.51,0,0,1,.16-.38.53.53,0,0,1,.38-.16h6.36a.57.57,0,0,1,.38.16.54.54,0,0,1,.15.38V8.24a.18.18,0,0,0,.09.18c.06,0,.11,0,.14-.09A5.56,5.56,0,0,1,137.18,6,4.66,4.66,0,0,1,139.69,6.54Z"/><path class="cls-1" d="M160.92,9.7a9.35,9.35,0,0,0-3.81-2.78,14,14,0,0,0-5.42-1,13.82,13.82,0,0,0-5.13.91,9.18,9.18,0,0,0-3.67,2.51,6.21,6.21,0,0,0-1.54,3.56c0,.21.18.35.53.4l6.45.85c.27,0,.48-.11.63-.44a1.94,1.94,0,0,1,1-1,4,4,0,0,1,1.86-.41,3.3,3.3,0,0,1,2.24.7,2.38,2.38,0,0,1,.8,1.9v.85c0,.15-.07.23-.22.23h-4.34c-3.05,0-5.37.62-7,1.88A6.36,6.36,0,0,0,141,23.15a6,6,0,0,0,2.12,5,9,9,0,0,0,5.71,1.68,9.75,9.75,0,0,0,2.64-.32v-5H151a2.78,2.78,0,0,1-1.88-.58,2,2,0,0,1-.67-1.57,1.92,1.92,0,0,1,.92-1.74A4.89,4.89,0,0,1,152,20h2.69a.19.19,0,0,1,.22.22v8.69a.53.53,0,0,0,.54.53h6.35a.5.5,0,0,0,.38-.15.52.52,0,0,0,.16-.38V13.61A6.23,6.23,0,0,0,160.92,9.7Z"/><path class="cls-2" d="M198,8.06a8.66,8.66,0,0,1,2,6V28.88a.53.53,0,0,1-.16.39.52.52,0,0,1-.38.15h-6.31a.52.52,0,0,1-.38-.15.53.53,0,0,1-.16-.39V15.72a3.81,3.81,0,0,0-.78-2.48,2.53,2.53,0,0,0-2.08-1,2.72,2.72,0,0,0-2.13.94,3.69,3.69,0,0,0-.83,2.51V28.88a.51.51,0,0,1-.54.54H179.9a.52.52,0,0,1-.38-.15.53.53,0,0,1-.16-.39V15.72a3.68,3.68,0,0,0-.83-2.48,2.66,2.66,0,0,0-2.13-1,2.85,2.85,0,0,0-2,.76,3.32,3.32,0,0,0-1,2V28.88a.56.56,0,0,1-.15.39.54.54,0,0,1-.38.15h-6.36a.52.52,0,0,1-.38-.15.53.53,0,0,1-.16-.39V6.81a.51.51,0,0,1,.16-.38.53.53,0,0,1,.38-.16h6.36a.55.55,0,0,1,.38.16.54.54,0,0,1,.15.38v2c0,.12,0,.18.09.2s.12,0,.18-.16a6.14,6.14,0,0,1,5.73-2.95,7.66,7.66,0,0,1,3.94,1,6.37,6.37,0,0,1,2.6,2.87c.09.18.18.16.27,0a6.43,6.43,0,0,1,2.57-2.86,7.43,7.43,0,0,1,3.79-.94A7,7,0,0,1,198,8.06Z"/><line class="cls-5" x1="73.68" y1="4.19" x2="66.43"/><path class="cls-6" d="M70.26,8.3v0Z"/><path class="cls-7" d="M84.89,18A16,16,0,0,1,84,23.65a9.45,9.45,0,0,1-3.29,4.43,8.72,8.72,0,0,1-5.26,1.66,6.27,6.27,0,0,1-5-2c-.07-.05-.12-.08-.18-.06s-.09.06-.09.15v1a.55.55,0,0,1-.54.54H63.35a.47.47,0,0,1-.37-.16.5.5,0,0,1-.17-.38v-20c0-3.89,1.08-6.74,3.23-8.51a.34.34,0,0,1,.09-.08.58.58,0,0,1,.34-.11.64.64,0,0,1,.24.05l.11.06L72.47,3.5h0l.11.06h0a.61.61,0,0,1,0,1,.39.39,0,0,1-.11.06,4.79,4.79,0,0,0-.75.48A4.2,4.2,0,0,0,70.26,8.3v.27a1.48,1.48,0,0,0,0,.21h0v8.38c0,.28,0,.57,0,.89a15.49,15.49,0,0,0,.09,1.9,4.93,4.93,0,0,0,.36,1.33,3.12,3.12,0,0,0,1.14,1.54,3.19,3.19,0,0,0,1.9.56,3.08,3.08,0,0,0,3-2.1A7.17,7.17,0,0,0,77.41,18a6.92,6.92,0,0,0-.58-3.22,3.5,3.5,0,0,0-1.21-1.52,3.13,3.13,0,0,0-1.16-.52h0a.59.59,0,0,1-.45-.58V9.81A3.38,3.38,0,0,1,75.44,7a.37.37,0,0,1,.12-.07s0,0,0,0a.54.54,0,0,1,.22,0h.13c.35,0,.69,0,1,.1a11.19,11.19,0,0,1,3,.87l0,0a1.11,1.11,0,0,1,.19.09l.4.19a8.76,8.76,0,0,1,.88.56h0a8.1,8.1,0,0,1,2.64,4A16.84,16.84,0,0,1,84.89,18Z"/><path class="cls-8" d="M81.11,8.43,76.52,6.06a7.79,7.79,0,0,0-2,1.84C74.15,8.68,81.11,8.43,81.11,8.43Z"/><path class="cls-9" d="M99.12,17.65A16,16,0,0,1,100,12a9.31,9.31,0,0,1,3.3-4.43,8.61,8.61,0,0,1,5.26-1.66,6.24,6.24,0,0,1,5,2,.27.27,0,0,0,.19.07c.06,0,.08-.07.08-.16v-1a.51.51,0,0,1,.16-.37.54.54,0,0,1,.39-.17h6.35a.49.49,0,0,1,.38.17.47.47,0,0,1,.16.37v20c0,3.89-1.07,6.74-3.22,8.52l-.1.07a.55.55,0,0,1-.34.11.59.59,0,0,1-.23-.05.39.39,0,0,1-.11-.06l-5.65-3.26h0l-.11-.06h0a.61.61,0,0,1-.26-.5.62.62,0,0,1,.27-.51l.11-.06a4.79,4.79,0,0,0,.75-.48,4.15,4.15,0,0,0,1.46-3.18,2.44,2.44,0,0,0,0-.27v-.22h0l0-8.38c0-.28,0-.58,0-.9a16,16,0,0,0-.08-1.9,5.37,5.37,0,0,0-.36-1.32,3.06,3.06,0,0,0-3-2.1,3.06,3.06,0,0,0-3,2.1,7,7,0,0,0-.68,3.31,6.82,6.82,0,0,0,.59,3.23,3.59,3.59,0,0,0,1.2,1.52,3.27,3.27,0,0,0,1.16.51h.06a.58.58,0,0,1,.44.57v2.31a3.35,3.35,0,0,1-1.48,2.8.38.38,0,0,1-.11.08l0,0a.71.71,0,0,1-.21,0h-.14c-.35,0-.69-.05-1-.09a10.92,10.92,0,0,1-3-.88l0,0-.18-.08-.41-.2a7.21,7.21,0,0,1-.88-.55l0,0a8.06,8.06,0,0,1-2.64-4A17.09,17.09,0,0,1,99.12,17.65Z"/><path class="cls-10" d="M102.91,27.22l4.58,2.37a7.79,7.79,0,0,0,2-1.84C109.86,27,102.91,27.22,102.91,27.22Z"/></g></g></svg>